<svg width="88" height="88" fill="none" xmlns="http://www.w3.org/2000/svg"><g filter="url(#filter0_d_81565_15)"><rect x="23" y="18" width="41.757" height="41.757" rx="20.878" fill="#E3B873"/><rect x="19" y="14" width="49.757" height="49.757" rx="24.878" stroke="#fff" stroke-width="8"/></g><path d="M39.324 45.27a4.744 4.744 0 01-2.646-.774c-.792-.516-1.422-1.266-1.89-2.25-.456-.996-.684-2.178-.684-3.546 0-1.368.228-2.544.684-3.528.468-.996 1.098-1.752 1.89-2.268a4.744 4.744 0 012.646-.774c.972 0 1.854.258 2.646.774.792.516 1.416 1.272 1.872 2.268.468.984.702 2.16.702 3.528 0 1.368-.234 2.55-.702 3.546-.456.984-1.08 1.734-1.872 2.25a4.744 4.744 0 01-2.646.774zm0-.36c1.38 0 2.07-2.07 2.07-6.21 0-4.14-.69-6.21-2.07-6.21s-2.07 2.07-2.07 6.21c0 4.14.69 6.21 2.07 6.21zm6.569-.72c0-.708.138-1.35.413-1.926a6.145 6.145 0 011.044-1.53c.408-.432.942-.942 1.602-1.53.613-.54 1.093-.99 1.44-1.35.348-.372.642-.786.883-1.242.24-.468.36-.972.36-1.512 0-.792-.192-1.41-.576-1.854-.384-.444-.883-.666-1.494-.666a4.11 4.11 0 00-1.063.144l-.378.126v2.88l-.233.054a4.026 4.026 0 01-.486.036c-.409 0-.739-.12-.99-.36-.24-.252-.36-.582-.36-.99 0-.384.144-.756.431-1.116.3-.36.739-.654 1.315-.882.587-.228 1.295-.342 2.123-.342 1.62 0 2.82.324 3.6.972.78.648 1.17 1.554 1.17 2.718 0 .732-.192 1.362-.576 1.89a4.826 4.826 0 01-1.386 1.314c-.54.348-1.265.744-2.178 1.188-.768.372-1.392.702-1.872.99a6.964 6.964 0 00-1.314 1.008 3.423 3.423 0 00-.846 1.35h6.66c.084-.648.288-1.188.612-1.62a2.56 2.56 0 01.469-.54h.54V45h-8.91v-.81z" fill="#fff"/><defs><filter id="filter0_d_81565_15" x="0" y="0" width="87.757" height="87.757" filterUnits="userSpaceOnUse" color-interpolation-filters="sRGB"><feFlood flood-opacity="0" result="BackgroundImageFix"/><feColorMatrix in="SourceAlpha" values="0 0 0 0 0 0 0 0 0 0 0 0 0 0 0 0 0 0 127 0" result="hardAlpha"/><feOffset dy="5"/><feGaussianBlur stdDeviation="7.5"/><feColorMatrix values="0 0 0 0 0.890196 0 0 0 0 0.721569 0 0 0 0 0.45098 0 0 0 0.15 0"/><feBlend in2="BackgroundImageFix" result="effect1_dropShadow_81565_15"/><feBlend in="SourceGraphic" in2="effect1_dropShadow_81565_15" result="shape"/></filter></defs></svg>