<svg width="88" height="88" fill="none" xmlns="http://www.w3.org/2000/svg"><g filter="url(#filter0_d_81565_16)"><rect x="23" y="18" width="41.757" height="41.757" rx="20.878" fill="#E3B873"/><rect x="19" y="14" width="49.757" height="49.757" rx="24.878" stroke="#fff" stroke-width="8"/></g><path d="M39.236 45.27a4.744 4.744 0 01-2.646-.774c-.792-.516-1.422-1.266-1.89-2.25-.456-.996-.684-2.178-.684-3.546 0-1.368.228-2.544.684-3.528.468-.996 1.098-1.752 1.89-2.268a4.744 4.744 0 012.646-.774c.972 0 1.854.258 2.646.774.792.516 1.416 1.272 1.872 2.268.468.984.702 2.16.702 3.528 0 1.368-.234 2.55-.702 3.546-.456.984-1.08 1.734-1.872 2.25a4.744 4.744 0 01-2.646.774zm0-.36c1.38 0 2.07-2.07 2.07-6.21 0-4.14-.69-6.21-2.07-6.21s-2.07 2.07-2.07 6.21c0 4.14.69 6.21 2.07 6.21zm10.349.36c-.828 0-1.536-.114-2.124-.342-.576-.228-1.014-.522-1.314-.882-.288-.36-.432-.732-.432-1.116 0-.408.12-.732.36-.972.252-.252.582-.378.99-.378.096 0 .192.012.288.036.096.012.162.018.198.018l.234.036v2.88c.012 0 .138.048.378.144.312.084.666.126 1.062.126.84 0 1.482-.252 1.926-.756.456-.516.684-1.284.684-2.304 0-1.044-.222-1.83-.666-2.358-.432-.528-1.02-.792-1.764-.792h-.9v-.45h.9c.54 0 .99-.24 1.35-.72.36-.48.54-1.17.54-2.07 0-.9-.186-1.59-.558-2.07-.372-.48-.846-.72-1.422-.72-.312 0-.612.048-.9.144l-.36.126v2.88l-.234.054a4.026 4.026 0 01-.486.036c-.408 0-.738-.12-.99-.36-.24-.252-.36-.582-.36-.99 0-.372.144-.738.432-1.098.288-.36.708-.654 1.26-.882.564-.24 1.23-.36 1.998-.36 1.008 0 1.86.15 2.556.45.708.288 1.236.678 1.584 1.17.36.492.54 1.032.54 1.62 0 .684-.174 1.23-.522 1.638-.348.396-.804.714-1.368.954-.552.216-1.182.342-1.89.378v.09a7.122 7.122 0 012.16.414c1.44.576 2.16 1.548 2.16 2.916 0 1.056-.438 1.908-1.314 2.556-.864.636-2.196.954-3.996.954z" fill="#fff"/><defs><filter id="filter0_d_81565_16" x="0" y="0" width="87.757" height="87.757" filterUnits="userSpaceOnUse" color-interpolation-filters="sRGB"><feFlood flood-opacity="0" result="BackgroundImageFix"/><feColorMatrix in="SourceAlpha" values="0 0 0 0 0 0 0 0 0 0 0 0 0 0 0 0 0 0 127 0" result="hardAlpha"/><feOffset dy="5"/><feGaussianBlur stdDeviation="7.5"/><feColorMatrix values="0 0 0 0 0.890196 0 0 0 0 0.721569 0 0 0 0 0.45098 0 0 0 0.15 0"/><feBlend in2="BackgroundImageFix" result="effect1_dropShadow_81565_16"/><feBlend in="SourceGraphic" in2="effect1_dropShadow_81565_16" result="shape"/></filter></defs></svg>