<svg width="88" height="88" viewBox="0 0 88 88" fill="none" xmlns="http://www.w3.org/2000/svg">
<g filter="url(#filter0_d_81565_11)">
<rect x="23" y="18" width="41.7571" height="41.7571" rx="20.8785" fill="#E3B873"/>
<rect x="19" y="14" width="49.7571" height="49.7571" rx="24.8785" stroke="white" stroke-width="8"/>
</g>
<path d="M40.7654 46.27C39.7934 46.27 38.9114 46.012 38.1194 45.496C37.3274 44.98 36.6974 44.23 36.2294 43.246C35.7734 42.25 35.5454 41.068 35.5454 39.7C35.5454 38.332 35.7734 37.156 36.2294 36.172C36.6974 35.176 37.3274 34.42 38.1194 33.904C38.9114 33.388 39.7934 33.13 40.7654 33.13C41.7374 33.13 42.6194 33.388 43.4114 33.904C44.2034 34.42 44.8274 35.176 45.2834 36.172C45.7514 37.156 45.9854 38.332 45.9854 39.7C45.9854 41.068 45.7514 42.25 45.2834 43.246C44.8274 44.23 44.2034 44.98 43.4114 45.496C42.6194 46.012 41.7374 46.27 40.7654 46.27ZM40.7654 45.91C42.1454 45.91 42.8354 43.84 42.8354 39.7C42.8354 35.56 42.1454 33.49 40.7654 33.49C39.3854 33.49 38.6954 35.56 38.6954 39.7C38.6954 43.84 39.3854 45.91 40.7654 45.91ZM48.0539 46V45.73L49.3139 45.37V35.488L47.4239 36.82L47.0639 36.37L50.3399 33.4H52.2839V45.37L53.5439 45.73V46H48.0539Z" fill="white"/>
<defs>
<filter id="filter0_d_81565_11" x="0" y="0" width="87.7571" height="87.7571" filterUnits="userSpaceOnUse" color-interpolation-filters="sRGB">
<feFlood flood-opacity="0" result="BackgroundImageFix"/>
<feColorMatrix in="SourceAlpha" type="matrix" values="0 0 0 0 0 0 0 0 0 0 0 0 0 0 0 0 0 0 127 0" result="hardAlpha"/>
<feOffset dy="5"/>
<feGaussianBlur stdDeviation="7.5"/>
<feColorMatrix type="matrix" values="0 0 0 0 0.890196 0 0 0 0 0.721569 0 0 0 0 0.45098 0 0 0 0.15 0"/>
<feBlend mode="normal" in2="BackgroundImageFix" result="effect1_dropShadow_81565_11"/>
<feBlend mode="normal" in="SourceGraphic" in2="effect1_dropShadow_81565_11" result="shape"/>
</filter>
</defs>
</svg>
