<svg width="88" height="88" viewBox="0 0 88 88" fill="none" xmlns="http://www.w3.org/2000/svg">
<g filter="url(#filter0_d_81565_15)">
<rect x="23" y="18" width="41.7571" height="41.7571" rx="20.8785" fill="#E3B873"/>
<rect x="19" y="14" width="49.7571" height="49.7571" rx="24.8785" stroke="white" stroke-width="8"/>
</g>
<path d="M39.3239 45.27C38.3519 45.27 37.4699 45.012 36.6779 44.496C35.8859 43.98 35.2559 43.23 34.7879 42.246C34.3319 41.25 34.1039 40.068 34.1039 38.7C34.1039 37.332 34.3319 36.156 34.7879 35.172C35.2559 34.176 35.8859 33.42 36.6779 32.904C37.4699 32.388 38.3519 32.13 39.3239 32.13C40.2959 32.13 41.1779 32.388 41.9699 32.904C42.7619 33.42 43.3859 34.176 43.8419 35.172C44.3099 36.156 44.5439 37.332 44.5439 38.7C44.5439 40.068 44.3099 41.25 43.8419 42.246C43.3859 43.23 42.7619 43.98 41.9699 44.496C41.1779 45.012 40.2959 45.27 39.3239 45.27ZM39.3239 44.91C40.7039 44.91 41.3939 42.84 41.3939 38.7C41.3939 34.56 40.7039 32.49 39.3239 32.49C37.9439 32.49 37.2539 34.56 37.2539 38.7C37.2539 42.84 37.9439 44.91 39.3239 44.91ZM45.8925 44.19C45.8925 43.482 46.0305 42.84 46.3065 42.264C46.5945 41.676 46.9425 41.166 47.3505 40.734C47.7585 40.302 48.2925 39.792 48.9525 39.204C49.5645 38.664 50.0445 38.214 50.3925 37.854C50.7405 37.482 51.0345 37.068 51.2745 36.612C51.5145 36.144 51.6345 35.64 51.6345 35.1C51.6345 34.308 51.4425 33.69 51.0585 33.246C50.6745 32.802 50.1765 32.58 49.5645 32.58C49.2165 32.58 48.8625 32.628 48.5025 32.724L48.1245 32.85V35.73L47.8905 35.784C47.6985 35.808 47.5365 35.82 47.4045 35.82C46.9965 35.82 46.6665 35.7 46.4145 35.46C46.1745 35.208 46.0545 34.878 46.0545 34.47C46.0545 34.086 46.1985 33.714 46.4865 33.354C46.7865 32.994 47.2245 32.7 47.8005 32.472C48.3885 32.244 49.0965 32.13 49.9245 32.13C51.5445 32.13 52.7445 32.454 53.5245 33.102C54.3045 33.75 54.6945 34.656 54.6945 35.82C54.6945 36.552 54.5025 37.182 54.1185 37.71C53.7465 38.238 53.2845 38.676 52.7325 39.024C52.1925 39.372 51.4665 39.768 50.5545 40.212C49.7865 40.584 49.1625 40.914 48.6825 41.202C48.2145 41.478 47.7765 41.814 47.3685 42.21C46.9725 42.606 46.6905 43.056 46.5225 43.56H53.1825C53.2665 42.912 53.4705 42.372 53.7945 41.94C53.9265 41.736 54.0825 41.556 54.2625 41.4H54.8025V45H45.8925V44.19Z" fill="white"/>
<defs>
<filter id="filter0_d_81565_15" x="0" y="0" width="87.7571" height="87.7571" filterUnits="userSpaceOnUse" color-interpolation-filters="sRGB">
<feFlood flood-opacity="0" result="BackgroundImageFix"/>
<feColorMatrix in="SourceAlpha" type="matrix" values="0 0 0 0 0 0 0 0 0 0 0 0 0 0 0 0 0 0 127 0" result="hardAlpha"/>
<feOffset dy="5"/>
<feGaussianBlur stdDeviation="7.5"/>
<feColorMatrix type="matrix" values="0 0 0 0 0.890196 0 0 0 0 0.721569 0 0 0 0 0.45098 0 0 0 0.15 0"/>
<feBlend mode="normal" in2="BackgroundImageFix" result="effect1_dropShadow_81565_15"/>
<feBlend mode="normal" in="SourceGraphic" in2="effect1_dropShadow_81565_15" result="shape"/>
</filter>
</defs>
</svg>
