<svg width="88" height="88" viewBox="0 0 88 88" fill="none" xmlns="http://www.w3.org/2000/svg">
<g filter="url(#filter0_d_81565_16)">
<rect x="23" y="18" width="41.7571" height="41.7571" rx="20.8785" fill="#E3B873"/>
<rect x="19" y="14" width="49.7571" height="49.7571" rx="24.8785" stroke="white" stroke-width="8"/>
</g>
<path d="M39.2361 45.27C38.2641 45.27 37.3821 45.012 36.5901 44.496C35.7981 43.98 35.1681 43.23 34.7001 42.246C34.2441 41.25 34.0161 40.068 34.0161 38.7C34.0161 37.332 34.2441 36.156 34.7001 35.172C35.1681 34.176 35.7981 33.42 36.5901 32.904C37.3821 32.388 38.2641 32.13 39.2361 32.13C40.2081 32.13 41.0901 32.388 41.8821 32.904C42.6741 33.42 43.2981 34.176 43.7541 35.172C44.2221 36.156 44.4561 37.332 44.4561 38.7C44.4561 40.068 44.2221 41.25 43.7541 42.246C43.2981 43.23 42.6741 43.98 41.8821 44.496C41.0901 45.012 40.2081 45.27 39.2361 45.27ZM39.2361 44.91C40.6161 44.91 41.3061 42.84 41.3061 38.7C41.3061 34.56 40.6161 32.49 39.2361 32.49C37.8561 32.49 37.1661 34.56 37.1661 38.7C37.1661 42.84 37.8561 44.91 39.2361 44.91ZM49.5846 45.27C48.7566 45.27 48.0486 45.156 47.4606 44.928C46.8846 44.7 46.4466 44.406 46.1466 44.046C45.8586 43.686 45.7146 43.314 45.7146 42.93C45.7146 42.522 45.8346 42.198 46.0746 41.958C46.3266 41.706 46.6566 41.58 47.0646 41.58C47.1606 41.58 47.2566 41.592 47.3526 41.616C47.4486 41.628 47.5146 41.634 47.5506 41.634L47.7846 41.67V44.55C47.7966 44.55 47.9226 44.598 48.1626 44.694C48.4746 44.778 48.8286 44.82 49.2246 44.82C50.0646 44.82 50.7066 44.568 51.1506 44.064C51.6066 43.548 51.8346 42.78 51.8346 41.76C51.8346 40.716 51.6126 39.93 51.1686 39.402C50.7366 38.874 50.1486 38.61 49.4046 38.61H48.5046V38.16H49.4046C49.9446 38.16 50.3946 37.92 50.7546 37.44C51.1146 36.96 51.2946 36.27 51.2946 35.37C51.2946 34.47 51.1086 33.78 50.7366 33.3C50.3646 32.82 49.8906 32.58 49.3146 32.58C49.0026 32.58 48.7026 32.628 48.4146 32.724C48.3786 32.736 48.2586 32.778 48.0546 32.85V35.73L47.8206 35.784C47.6286 35.808 47.4666 35.82 47.3346 35.82C46.9266 35.82 46.5966 35.7 46.3446 35.46C46.1046 35.208 45.9846 34.878 45.9846 34.47C45.9846 34.098 46.1286 33.732 46.4166 33.372C46.7046 33.012 47.1246 32.718 47.6766 32.49C48.2406 32.25 48.9066 32.13 49.6746 32.13C50.6826 32.13 51.5346 32.28 52.2306 32.58C52.9386 32.868 53.4666 33.258 53.8146 33.75C54.1746 34.242 54.3546 34.782 54.3546 35.37C54.3546 36.054 54.1806 36.6 53.8326 37.008C53.4846 37.404 53.0286 37.722 52.4646 37.962C51.9126 38.178 51.2826 38.304 50.5746 38.34V38.43C51.3666 38.466 52.0866 38.604 52.7346 38.844C54.1746 39.42 54.8946 40.392 54.8946 41.76C54.8946 42.816 54.4566 43.668 53.5806 44.316C52.7166 44.952 51.3846 45.27 49.5846 45.27Z" fill="white"/>
<defs>
<filter id="filter0_d_81565_16" x="0" y="0" width="87.7571" height="87.7571" filterUnits="userSpaceOnUse" color-interpolation-filters="sRGB">
<feFlood flood-opacity="0" result="BackgroundImageFix"/>
<feColorMatrix in="SourceAlpha" type="matrix" values="0 0 0 0 0 0 0 0 0 0 0 0 0 0 0 0 0 0 127 0" result="hardAlpha"/>
<feOffset dy="5"/>
<feGaussianBlur stdDeviation="7.5"/>
<feColorMatrix type="matrix" values="0 0 0 0 0.890196 0 0 0 0 0.721569 0 0 0 0 0.45098 0 0 0 0.15 0"/>
<feBlend mode="normal" in2="BackgroundImageFix" result="effect1_dropShadow_81565_16"/>
<feBlend mode="normal" in="SourceGraphic" in2="effect1_dropShadow_81565_16" result="shape"/>
</filter>
</defs>
</svg>
