<svg width="88" height="88" fill="none" xmlns="http://www.w3.org/2000/svg"><g filter="url(#filter0_d_81565_17)"><rect x="23" y="18" width="41.757" height="41.757" rx="20.878" fill="#E3B873"/><rect x="19" y="14" width="49.757" height="49.757" rx="24.878" stroke="#fff" stroke-width="8"/></g><path d="M39.104 45.27a4.744 4.744 0 01-2.646-.774c-.792-.516-1.422-1.266-1.89-2.25-.456-.996-.684-2.178-.684-3.546 0-1.368.228-2.544.684-3.528.468-.996 1.098-1.752 1.89-2.268a4.744 4.744 0 012.646-.774c.972 0 1.854.258 2.646.774.792.516 1.416 1.272 1.872 2.268.468.984.702 2.16.702 3.528 0 1.368-.234 2.55-.702 3.546-.456.984-1.08 1.734-1.872 2.25a4.744 4.744 0 01-2.646.774zm0-.36c1.38 0 2.07-2.07 2.07-6.21 0-4.14-.69-6.21-2.07-6.21s-2.07 2.07-2.07 6.21c0 4.14.69 6.21 2.07 6.21zm10.259.09v-.27l1.26-.36v-2.7h-5.13l-.36-.54 6.75-8.91h1.71v8.64h1.89v.81h-1.89v2.7l1.26.36V45h-5.49zm-3.24-4.14h4.5v-5.94l-4.5 5.94z" fill="#fff"/><defs><filter id="filter0_d_81565_17" x="0" y="0" width="87.757" height="87.757" filterUnits="userSpaceOnUse" color-interpolation-filters="sRGB"><feFlood flood-opacity="0" result="BackgroundImageFix"/><feColorMatrix in="SourceAlpha" values="0 0 0 0 0 0 0 0 0 0 0 0 0 0 0 0 0 0 127 0" result="hardAlpha"/><feOffset dy="5"/><feGaussianBlur stdDeviation="7.5"/><feColorMatrix values="0 0 0 0 0.890196 0 0 0 0 0.721569 0 0 0 0 0.45098 0 0 0 0.15 0"/><feBlend in2="BackgroundImageFix" result="effect1_dropShadow_81565_17"/><feBlend in="SourceGraphic" in2="effect1_dropShadow_81565_17" result="shape"/></filter></defs></svg>